<?xml version="1.0" encoding="utf-8"?>
<!-- Generator: Adobe Illustrator 16.0.0, SVG Export Plug-In . SVG Version: 6.00 Build 0)  -->
<!DOCTYPE svg PUBLIC "-//W3C//DTD SVG 1.1//EN" "http://www.w3.org/Graphics/SVG/1.1/DTD/svg11.dtd">
<svg version="1.1" xmlns="http://www.w3.org/2000/svg" xmlns:xlink="http://www.w3.org/1999/xlink" x="0px" y="0px"
	 width="74.874px" height="83.994px" viewBox="0 0 74.874 83.994" enable-background="new 0 0 74.874 83.994" xml:space="preserve">
<g id="Layer_1">
</g>
<g id="Layer_2">
	<path fill="none" stroke="#000000" d="M40.179,29.22c-4.5,0-5.018-2.5-13.102-2.5c-7.998,0-14.748,8.416-14.748,14.75
		c0,9.749,1.195,19.407,7,26.249c5.25,6.188,8.015,7.084,12.25,7.438c5.25,0.438,8.834-1.688,8.834-1.688"/>
	<path fill="none" stroke="#000000" d="M40.179,73.469c0,0,3.583,2.125,8.833,1.688c4.235-0.354,7-1.25,12.249-7.438
		c5.807-6.842,7-16.5,7-26.249c0-6.334-6.75-14.75-14.747-14.75c-8.083,0-8.835,2.5-13.335,2.5c0,0-0.59-4.523,4.805-9.918
		c4.085-4.084,7.584-3.041,7.584-3.041"/>
	<path fill="none" stroke="#000000" d="M16.875,43.538c0,8.063,0.988,16.049,5.789,21.708c4.342,5.116,6.628,5.857,10.13,6.15
		c4.341,0.361,7.306-1.396,7.306-1.396"/>
	<path fill="none" stroke="#000000" d="M39.906,70.001c0,0,2.963,1.757,7.305,1.396c3.502-0.293,5.788-1.034,10.129-6.15
		c4.803-5.659,5.789-13.646,5.789-21.708"/>
	<path fill="none" stroke="#000000" d="M42.976,21.116c0,0-1.834,1.229-6.834-0.709c-4.838-1.875-4.75-9.625-4.75-9.625
		s7.938,0.26,10.75,2.375c3.938,2.963,2.408,6.58,2.408,6.58"/>
	<path fill="none" stroke="#000000" d="M43.942,20.229c0,0,0.137-1.51-1.363-3.01s-5.5-2.875-5.5-2.875"/>
	<line fill="none" stroke="#000000" x1="63.129" y1="43.538" x2="16.875" y2="43.538"/>
	<path fill="none" stroke="#000000" d="M54.917,43.538c0,0,0,3.375-3.375,3.375s-3.375-3.375-3.375-3.375H54.917z"/>
	<circle fill="none" stroke="#000000" cx="48.333" cy="52.918" r="1.5"/>
	<circle fill="none" stroke="#000000" cx="53.542" cy="57.543" r="1.375"/>
	<circle fill="none" stroke="#000000" cx="47.917" cy="63.168" r="1.083"/>
	<polyline fill="none" stroke="#000000" stroke-width="2" points="6.106,10.782 23.231,16.157 40.512,62.574 	"/>
</g>
</svg>
