<?xml version="1.0" encoding="utf-8"?>
<!-- Generator: Adobe Illustrator 16.0.0, SVG Export Plug-In . SVG Version: 6.00 Build 0)  -->
<!DOCTYPE svg PUBLIC "-//W3C//DTD SVG 1.1//EN" "http://www.w3.org/Graphics/SVG/1.1/DTD/svg11.dtd">
<svg version="1.1" xmlns="http://www.w3.org/2000/svg" xmlns:xlink="http://www.w3.org/1999/xlink" x="0px" y="0px"
	 width="74.874px" height="83.994px" viewBox="0 0 74.874 83.994" enable-background="new 0 0 74.874 83.994" xml:space="preserve">
<g id="Layer_1">
</g>
<g id="Layer_2">
	<path fill="none" stroke="#000000" d="M40.725,28.349c-4.5,0-5.018-2.5-13.102-2.5c-7.998,0-14.748,8.416-14.748,14.75
		c0,9.749,1.195,19.407,7,26.249c5.25,6.188,8.015,7.084,12.25,7.438c5.25,0.438,8.834-1.688,8.834-1.688"/>
	<path fill="none" stroke="#000000" d="M40.725,72.598c0,0,3.583,2.125,8.833,1.688c4.235-0.354,7-1.25,12.249-7.438
		c5.807-6.842,7-16.5,7-26.249c0-6.334-6.75-14.75-14.747-14.75c-8.083,0-8.835,2.5-13.335,2.5c0,0-0.59-4.523,4.805-9.918
		c4.085-4.084,7.584-3.041,7.584-3.041"/>
	<path fill="none" stroke="#000000" d="M43.521,20.245c0,0-1.834,1.229-6.834-0.709c-4.838-1.875-4.75-9.625-4.75-9.625
		s7.938,0.26,10.75,2.375c3.938,2.963,2.408,6.58,2.408,6.58"/>
	<path fill="none" stroke="#000000" d="M44.488,19.358c0,0,0.137-1.51-1.363-3.01s-5.5-2.875-5.5-2.875"/>
	<g>
		<path fill-rule="evenodd" clip-rule="evenodd" d="M31.492,36.528c-1.817-0.224-3.667-0.309-5.446-0.704
			c-2.951-0.656-5.029-2.264-5.318-5.574c-0.037-0.42-0.537-0.877-0.929-1.177c-4.693-3.596-9.444-7.147-12.711-12.201
			c-1.15-1.779-2.065-3.731-2.884-5.691c-0.271-0.647-0.186-1.876,0.251-2.272c0.502-0.454,1.679-0.575,2.382-0.327
			c4.385,1.543,8.156,4.089,11.222,7.582c2.354,2.682,4.55,5.503,6.849,8.234c0.281,0.335,0.752,0.679,1.162,0.714
			c2.579,0.223,4.073,1.632,4.671,4.077c0.609,2.5,1.641,4.673,4.18,5.79c0.246,0.109,0.355,0.528,0.529,0.804
			c-0.271,0.168-0.533,0.465-0.813,0.481c-1.039,0.058-2.084,0.022-3.126,0.022C31.505,36.367,31.498,36.448,31.492,36.528z
			 M19.795,19.762c-1.393-1.493-2.657-2.963-4.043-4.307c-2.633-2.552-5.683-4.487-9.131-5.753c-0.406-0.149-0.908-0.04-1.365-0.05
			c0.023,0.467-0.041,0.959,0.092,1.392c0.202,0.66,0.53,1.283,0.822,1.913c2.113,4.556,5.429,8.089,9.363,11.134
			C16.951,22.65,18.303,21.278,19.795,19.762z M28.504,35.139c-1.431-1.556-2.761-2.934-3.997-4.393
			c-0.278-0.329-0.228-0.938-0.329-1.417c0.417,0.253,0.878,0.455,1.241,0.77c1.746,1.513,3.43,3.098,5.218,4.559
			c0.465,0.381,1.223,0.406,1.846,0.594c0.066-0.12,0.134-0.24,0.201-0.36c-2.196-1.438-2.473-3.858-3.249-6.03
			c-0.588-1.648-1.813-2.573-3.445-2.597c-1.631-0.024-2.917,0.696-3.634,2.15c-0.738,1.496-0.603,2.994,0.505,4.316
			C24.313,34.465,26.315,34.889,28.504,35.139z M22.508,23.101c-1.341,1.284-2.563,2.455-3.85,3.688
			c0.708,0.501,1.485,1.053,2.263,1.604c-0.147-0.237-0.294-0.475-0.441-0.712c1.028-0.939,2.057-1.879,3.085-2.819
			c0.132,0.105,0.264,0.211,0.395,0.316C23.432,24.422,22.903,23.667,22.508,23.101z M20.678,20.862
			c-1.456,1.405-2.799,2.702-4.226,4.08c0.403,0.308,0.733,0.558,1.057,0.805c1.346-1.335,2.606-2.585,3.918-3.886
			C21.172,21.521,20.943,21.217,20.678,20.862z"/>
		<path fill-rule="evenodd" clip-rule="evenodd" d="M33.369,65.089c0.081,0,0.162,0,0.244,0.005c0.002,0,0.003,0.1,0,0.1
			c-0.081,0.006-0.162,0.005-0.244,0.006C33.369,65.162,33.369,65.125,33.369,65.089z"/>
	</g>
	<rect x="41.483" y="49.501" fill="#FF3311" width="4.125" height="4.125"/>
	<rect x="33.233" y="41.251" fill="#FD1200" width="4.125" height="4.125"/>
	<rect x="41.483" y="41.251" fill="#FF302D" width="4.125" height="4.125"/>
	<rect x="37.358" y="45.376" fill="#BD9C00" width="4.125" height="4.125"/>
	<rect x="29.108" y="45.376" fill="#FFEB5A" width="4.125" height="4.125"/>
	<rect x="24.983" y="49.501" fill="#FF484C" width="4.125" height="4.125"/>
	<rect x="16.733" y="49.501" fill="#FF3437" width="4.125" height="4.125"/>
	<rect x="29.108" y="53.626" fill="#FFE385" width="4.125" height="4.125"/>
	<rect x="33.233" y="49.501" fill="#D30000" width="4.125" height="4.125"/>
	<rect x="29.108" y="37.126" fill="#FF460D" width="4.125" height="4.125"/>
	<rect x="20.858" y="37.126" fill="#FFAD2B" width="4.125" height="4.125"/>
	<rect x="24.983" y="57.751" fill="#FFF235" width="4.125" height="4.125"/>
	<rect x="24.983" y="41.251" fill="#FF5F40" width="4.125" height="4.125"/>
	<rect x="20.858" y="45.376" fill="#A30800" width="4.125" height="4.125"/>
</g>
</svg>
