<?xml version="1.0" encoding="utf-8"?>
<!-- Generator: Adobe Illustrator 16.0.0, SVG Export Plug-In . SVG Version: 6.00 Build 0)  -->
<!DOCTYPE svg PUBLIC "-//W3C//DTD SVG 1.1//EN" "http://www.w3.org/Graphics/SVG/1.1/DTD/svg11.dtd">
<svg version="1.1" xmlns="http://www.w3.org/2000/svg" xmlns:xlink="http://www.w3.org/1999/xlink" x="0px" y="0px"
	 width="74.874px" height="83.993px" viewBox="0 0 74.874 83.993" enable-background="new 0 0 74.874 83.993" xml:space="preserve">
<g id="Layer_1">
</g>
<g id="Layer_2">
	<path fill="none" stroke="#000000" d="M38.528,26.25c-4.5,0-5.018-2.5-13.101-2.5c-7.998,0-14.748,8.416-14.748,14.75
		c0,9.75,1.195,19.408,7,26.25c5.25,6.188,8.015,7.084,12.25,7.438c5.25,0.438,8.833-1.688,8.833-1.688"/>
	<path fill="none" stroke="#000000" d="M38.528,70.5c0,0,3.583,2.125,8.833,1.688c4.235-0.354,7-1.25,12.25-7.438
		c5.805-6.842,7-16.5,7-26.25c0-6.334-6.75-14.75-14.748-14.75c-8.083,0-8.835,2.5-13.335,2.5c0,0-0.589-4.523,4.806-9.918
		c4.084-4.084,7.583-3.041,7.583-3.041"/>
	<path fill="none" stroke="#000000" d="M41.325,18.147c0,0-1.833,1.229-6.833-0.709c-4.837-1.875-4.75-9.625-4.75-9.625
		s7.938,0.26,10.75,2.375c3.938,2.963,2.408,6.58,2.408,6.58"/>
	<path fill="none" stroke="#000000" d="M42.292,17.26c0,0,0.137-1.51-1.363-3.01s-5.5-2.875-5.5-2.875"/>
	<path fill="none" stroke="#000000" d="M49.014,27.124c0,0,4.25-0.666,8.042,2.084c5.041,3.656,5.351,7.959,5.351,7.959"/>
	<path fill="none" stroke="#000000" d="M62.406,47.234c0,0-0.202,4.598-1.077,7.348s-1.854,5.467-4.979,8.717
		s-8.438,4.824-8.438,4.824"/>
	<path fill="none" stroke="#000000" d="M5.718,32.868c0,0,0.283-4.783,4.126-8.774c4.333-4.5,9.249-4.393,9.249-4.393"/>
	<polygon points="18.714,17.95 23.215,19.65 18.736,21.412 	"/>
	<polygon points="7.521,32.665 5.709,37.167 3.836,32.689 	"/>
	<path fill="none" stroke="#000000" d="M68.546,62.814c0,0-0.283,4.783-4.126,8.773c-4.333,4.5-9.249,4.393-9.249,4.393"/>
	<polygon points="55.55,77.732 51.049,76.031 55.528,74.27 	"/>
	<polygon points="66.743,63.016 68.555,58.514 70.428,62.992 	"/>
</g>
</svg>
