<?xml version="1.0" encoding="utf-8"?>
<!-- Generator: Adobe Illustrator 16.0.0, SVG Export Plug-In . SVG Version: 6.00 Build 0)  -->
<!DOCTYPE svg PUBLIC "-//W3C//DTD SVG 1.1//EN" "http://www.w3.org/Graphics/SVG/1.1/DTD/svg11.dtd">
<svg version="1.1" xmlns="http://www.w3.org/2000/svg" xmlns:xlink="http://www.w3.org/1999/xlink" x="0px" y="0px"
	 width="74.667px" height="84.125px" viewBox="0 0 74.667 84.125" enable-background="new 0 0 74.667 84.125" xml:space="preserve">
<g id="Layer_4">
	<path fill="#FA142E" d="M74.667,46.792c0,10.31-4.179,19.643-10.935,26.399c-6.756,6.756-16.089,10.935-26.398,10.935
		S17.691,79.946,10.935,73.19C4.179,66.434,0,57.101,0,46.792c0-10.309,4.179-19.643,10.935-26.398
		c6.756-6.756,16.089,2.44,26.398,2.44s19.643-9.196,26.398-2.44C70.488,27.149,74.667,36.482,74.667,46.792z"/>
</g>
<g id="Layer_2">
	<path fill="#FAEEBE" d="M37.833,20.377c0,0-6.833-7.251-16.167-7.251s-18,8.917-18,22.294c0,8.539,3.339,12.837,10.833,21.706
		c9.238,10.932,23.156,16.833,23.156,16.833"/>
	<path fill="none" stroke="#FFFFFF" stroke-miterlimit="10" d="M37.833,73.958"/>
	<path fill="none" stroke="#FFFFFF" stroke-miterlimit="10" d="M37.833,19.958"/>
	<path fill="#FAEEBE" d="M37.083,20.377c0,0,6.833-7.251,16.167-7.251s18,8.917,18,22.294c0,8.539-3.339,12.837-10.833,21.706
		c-9.238,10.932-23.156,16.833-23.156,16.833"/>
</g>
<g id="Layer_3">
	<path fill="#080200" d="M32.833,37.958c0,0-5.25,3.75-2.625,5.375S32.833,37.958,32.833,37.958z"/>
	<path fill="#080200" d="M40.167,37.958c0,0,5.25,3.75,2.625,5.375S40.167,37.958,40.167,37.958z"/>
</g>
<g id="Layer_5">
	<path fill="#73BF00" d="M37.417,12.938c0,0-0.688-5.312,2.833-8.771S48.292,0,48.292,0s0.167,6.292-2.958,9.688
		S37.417,12.938,37.417,12.938z"/>
</g>
</svg>
